# Blender v3.5.1 OBJ File: ''
# www.blender.org
mtllib P4_Box.mtl
o Plane_Plane.001
v 0.099943 0.499943 0.500000
v 0.099943 -0.500057 0.500000
v 0.099943 0.499943 -0.500000
v 0.099943 -0.500057 -0.500000
v 0.099943 -0.000057 0.500000
v 0.099943 -0.000057 -0.500000
v 0.099943 0.499943 -0.000000
v 0.099943 -0.500057 0.000000
v 0.099943 0.319983 0.317457
v 0.099943 0.447877 -0.001032
v 0.099943 0.319982 -0.319520
v 0.099943 0.001494 0.445351
v 0.099943 0.001494 -0.447415
v 0.099943 -0.316994 0.317457
v 0.099943 -0.444889 -0.001032
v 0.099943 -0.316994 -0.319520
v 0.099943 0.217206 0.500000
v 0.099943 0.171154 0.406402
v 0.099943 0.499943 0.177098
v 0.099943 0.408949 0.168606
v 0.099943 0.499943 -0.177098
v 0.099943 0.408949 -0.170722
v 0.099943 0.203424 -0.500000
v 0.099943 0.172826 -0.407845
v 0.099943 -0.202305 -0.500000
v 0.099943 -0.168175 -0.408517
v 0.099943 -0.500057 -0.195940
v 0.099943 -0.407050 -0.168032
v 0.099943 -0.500057 0.197922
v 0.099943 -0.405970 0.168607
v 0.099943 -0.217319 0.500000
v 0.099943 -0.168174 0.406402
v 0.123482 0.499943 0.500000
v 0.123482 -0.500057 0.500000
v 0.123482 0.499943 -0.500000
v 0.123482 -0.500057 -0.500000
v 0.123482 -0.000057 0.500000
v 0.123482 -0.000057 -0.500000
v 0.123482 0.499943 -0.000000
v 0.123482 -0.500057 0.000000
v 0.123482 0.217206 0.500000
v 0.123482 0.499943 0.177098
v 0.123482 0.203424 -0.500000
v 0.123482 -0.202305 -0.500000
v 0.123482 -0.500057 -0.195940
v 0.123482 -0.500057 0.197922
v 0.123482 -0.217319 0.500000
v 0.123482 0.499943 -0.177098
v 0.123482 -0.001331 -0.484395
v 0.123482 -0.001331 0.486097
v 0.123482 0.483915 0.000851
v 0.123482 -0.347548 0.347068
v 0.123482 -0.486577 0.000851
v 0.123482 0.344885 -0.345366
v 0.123482 -0.347548 -0.345366
v 0.123482 0.183099 0.443757
v 0.123482 0.441598 0.185258
v 0.123482 0.184918 -0.441381
v 0.123482 -0.185772 -0.442111
v 0.123482 -0.445444 -0.180688
v 0.123482 -0.444270 0.185258
v 0.123482 -0.185772 0.443757
v 0.123482 0.344885 0.347068
v 0.123482 0.441598 -0.183613
v 0.136673 0.408949 0.168606
v 0.136673 0.447877 -0.001032
v 0.136673 -0.001331 0.486097
v 0.136673 0.001494 0.445351
v 0.136673 -0.405970 0.168607
v 0.136673 -0.444889 -0.001032
v 0.136673 -0.407050 -0.168032
v 0.136673 -0.316994 -0.319520
v 0.136673 -0.168174 0.406402
v 0.136673 -0.168175 -0.408517
v 0.136673 0.001494 -0.447415
v 0.136673 0.171154 0.406402
v 0.136673 0.319983 0.317457
v 0.136673 0.172826 -0.407845
v 0.136673 0.319982 -0.319520
v 0.136673 -0.347548 0.347068
v 0.136673 -0.316994 0.317457
v 0.136673 -0.486577 0.000851
v 0.136673 0.183099 0.443757
v 0.136673 0.408949 -0.170722
v 0.136673 -0.445444 -0.180688
v 0.136673 -0.444270 0.185258
v 0.136673 -0.185772 0.443757
v 0.136673 0.344885 0.347068
v 0.136673 -0.001331 -0.484395
v 0.136673 0.483915 0.000851
v 0.136673 0.344885 -0.345366
v 0.136673 -0.347548 -0.345366
v 0.136673 0.441598 0.185258
v 0.136673 0.441598 -0.183613
v 0.136673 0.184918 -0.441381
v 0.136673 -0.185772 -0.442111
v -0.099943 0.499943 0.500000
v -0.099943 -0.500057 0.500000
v -0.099943 0.499943 -0.500000
v -0.099943 -0.500057 -0.500000
v -0.099943 -0.000057 0.500000
v -0.099943 -0.000057 -0.500000
v -0.099943 0.499943 -0.000000
v -0.099943 -0.500057 0.000000
v -0.099943 0.319983 0.317457
v -0.099943 0.447877 -0.001032
v -0.099943 0.319982 -0.319520
v -0.099943 0.001494 0.445351
v -0.099943 0.001494 -0.447415
v -0.099943 -0.316994 0.317457
v -0.099943 -0.444889 -0.001032
v -0.099943 -0.316994 -0.319520
v -0.099943 0.217206 0.500000
v -0.099943 0.171154 0.406402
v -0.099943 0.499943 0.177098
v -0.099943 0.408949 0.168606
v -0.099943 0.499943 -0.177098
v -0.099943 0.408949 -0.170722
v -0.099943 0.203424 -0.500000
v -0.099943 0.172826 -0.407845
v -0.099943 -0.202305 -0.500000
v -0.099943 -0.168175 -0.408517
v -0.099943 -0.500057 -0.195940
v -0.099943 -0.407050 -0.168032
v -0.099943 -0.500057 0.197922
v -0.099943 -0.405970 0.168607
v -0.099943 -0.217319 0.500000
v -0.099943 -0.168174 0.406402
v -0.123482 0.499943 0.500000
v -0.123482 -0.500057 0.500000
v -0.123482 0.499943 -0.500000
v -0.123482 -0.500057 -0.500000
v -0.123482 -0.000057 0.500000
v -0.123482 -0.000057 -0.500000
v -0.123482 0.499943 -0.000000
v -0.123482 -0.500057 0.000000
v -0.123482 0.217206 0.500000
v -0.123482 0.499943 0.177098
v -0.123482 0.203424 -0.500000
v -0.123482 -0.202305 -0.500000
v -0.123482 -0.500057 -0.195940
v -0.123482 -0.500057 0.197922
v -0.123482 -0.217319 0.500000
v -0.123482 0.499943 -0.177098
v -0.123482 -0.001331 -0.484395
v -0.123482 -0.001331 0.486097
v -0.123482 0.483915 0.000851
v -0.123482 -0.347548 0.347068
v -0.123482 -0.486577 0.000851
v -0.123482 0.344885 -0.345366
v -0.123482 -0.347548 -0.345366
v -0.123482 0.183099 0.443757
v -0.123482 0.441598 0.185258
v -0.123482 0.184918 -0.441381
v -0.123482 -0.185772 -0.442111
v -0.123482 -0.445444 -0.180688
v -0.123482 -0.444270 0.185258
v -0.123482 -0.185772 0.443757
v -0.123482 0.344885 0.347068
v -0.123482 0.441598 -0.183613
v -0.136673 0.408949 0.168606
v -0.136673 0.447877 -0.001032
v -0.136673 -0.001331 0.486097
v -0.136673 0.001494 0.445351
v -0.136673 -0.405970 0.168607
v -0.136673 -0.444889 -0.001032
v -0.136673 -0.407050 -0.168032
v -0.136673 -0.316994 -0.319520
v -0.136673 -0.168174 0.406402
v -0.136673 -0.168175 -0.408517
v -0.136673 0.001494 -0.447415
v -0.136673 0.171154 0.406402
v -0.136673 0.319983 0.317457
v -0.136673 0.172826 -0.407845
v -0.136673 0.319982 -0.319520
v -0.136673 -0.347548 0.347068
v -0.136673 -0.316994 0.317457
v -0.136673 -0.486577 0.000851
v -0.136673 0.183099 0.443757
v -0.136673 0.408949 -0.170722
v -0.136673 -0.445444 -0.180688
v -0.136673 -0.444270 0.185258
v -0.136673 -0.185772 0.443757
v -0.136673 0.344885 0.347068
v -0.136673 -0.001331 -0.484395
v -0.136673 0.483915 0.000851
v -0.136673 0.344885 -0.345366
v -0.136673 -0.347548 -0.345366
v -0.136673 0.441598 0.185258
v -0.136673 0.441598 -0.183613
v -0.136673 0.184918 -0.441381
v -0.136673 -0.185772 -0.442111
vt 0.373767 0.750000
vt 0.373767 1.000000
vt 0.500000 1.000000
vt 0.500000 0.750000
vt 0.625000 0.750000
vt 0.625000 1.000000
vt 0.750000 1.000000
vt 0.750000 0.750000
vt 0.625000 0.000000
vt 0.625000 0.250000
vt 0.750000 0.250000
vt 0.750000 0.000000
vt 0.375000 0.000000
vt 0.375000 0.250000
vt 0.500000 0.250000
vt 0.500000 0.000000
vt 0.000000 0.375000
vt 0.000000 0.500000
vt 0.250000 0.500000
vt 0.250000 0.375000
vt 0.000000 0.625000
vt 0.000000 0.750000
vt 0.250000 0.750000
vt 0.250000 0.625000
vt 0.750000 0.375000
vt 0.750000 0.500000
vt 1.000000 0.500000
vt 1.000000 0.375000
vt 0.750000 0.623018
vt 1.000000 0.750000
vt 1.000000 0.623018
vt 0.250000 0.000000
vt 0.250000 0.250000
vt 0.000000 0.250000
vt 0.250000 1.000000
vt 1.000000 0.250000
vt 0.373767 0.750000
vt 0.500000 0.750000
vt 0.500000 1.000000
vt 0.373767 1.000000
vt 0.625000 0.750000
vt 0.750000 0.750000
vt 0.750000 1.000000
vt 0.625000 1.000000
vt 0.750000 0.375000
vt 1.000000 0.375000
vt 1.000000 0.500000
vt 0.750000 0.500000
vt 0.750000 0.623018
vt 1.000000 0.623018
vt 1.000000 0.750000
vt 0.250000 0.750000
vt 0.250000 1.000000
vt 0.750000 0.250000
vt 1.000000 0.250000
vt 0.500000 0.000000
vt 0.375000 0.000000
vt 0.750000 0.000000
vt 0.625000 0.000000
vt 0.000000 0.500000
vt 0.000000 0.625000
vt 0.000000 0.250000
vt 0.000000 0.375000
vt 0.000000 0.750000
vt 0.250000 0.000000
vt 0.250000 0.625000
vt 0.625000 0.250000
vt 0.500000 0.250000
vt 0.250000 0.500000
vt 0.250000 0.250000
vt 0.250000 0.375000
vt 0.375000 0.250000
vt 0.625000 0.250000
vt 0.750000 0.250000
vt 0.750000 0.250000
vt 0.625000 0.250000
vt 0.375000 0.250000
vt 0.500000 0.250000
vt 0.500000 0.250000
vt 0.375000 0.250000
vt 0.250000 0.375000
vt 0.250000 0.375000
vt 0.250000 0.500000
vt 0.250000 0.500000
vt 0.250000 0.250000
vt 0.250000 0.250000
vt 0.250000 0.625000
vt 0.250000 0.625000
vt 0.250000 0.750000
vt 0.250000 0.750000
vt 0.750000 0.375000
vt 0.750000 0.375000
vt 0.750000 0.500000
vt 0.750000 0.500000
vt 0.750000 0.623018
vt 0.750000 0.623018
vt 0.500000 0.750000
vt 0.625000 0.750000
vt 0.625000 0.750000
vt 0.500000 0.750000
vt 0.373767 0.750000
vt 0.373767 0.750000
vt 0.750000 0.750000
vt 0.750000 0.750000
vt 0.373767 0.750000
vt 0.500000 0.750000
vt 0.500000 1.000000
vt 0.373767 1.000000
vt 0.625000 0.750000
vt 0.750000 0.750000
vt 0.750000 1.000000
vt 0.625000 1.000000
vt 0.625000 0.000000
vt 0.750000 0.000000
vt 0.750000 0.250000
vt 0.625000 0.250000
vt 0.375000 0.000000
vt 0.500000 0.000000
vt 0.500000 0.250000
vt 0.375000 0.250000
vt 0.000000 0.375000
vt 0.250000 0.375000
vt 0.250000 0.500000
vt 0.000000 0.500000
vt 0.000000 0.625000
vt 0.250000 0.625000
vt 0.250000 0.750000
vt 0.000000 0.750000
vt 0.750000 0.375000
vt 1.000000 0.375000
vt 1.000000 0.500000
vt 0.750000 0.500000
vt 0.750000 0.623018
vt 1.000000 0.623018
vt 1.000000 0.750000
vt 0.250000 0.000000
vt 0.250000 0.250000
vt 0.000000 0.250000
vt 0.250000 1.000000
vt 1.000000 0.250000
vt 0.373767 0.750000
vt 0.373767 1.000000
vt 0.500000 1.000000
vt 0.500000 0.750000
vt 0.625000 0.750000
vt 0.625000 1.000000
vt 0.750000 1.000000
vt 0.750000 0.750000
vt 0.750000 0.375000
vt 0.750000 0.500000
vt 1.000000 0.500000
vt 1.000000 0.375000
vt 0.750000 0.623018
vt 1.000000 0.750000
vt 1.000000 0.623018
vt 0.250000 0.750000
vt 0.250000 1.000000
vt 0.750000 0.250000
vt 1.000000 0.250000
vt 0.375000 0.000000
vt 0.500000 0.000000
vt 0.625000 0.000000
vt 0.750000 0.000000
vt 0.000000 0.625000
vt 0.000000 0.500000
vt 0.000000 0.375000
vt 0.000000 0.250000
vt 0.000000 0.750000
vt 0.250000 0.000000
vt 0.250000 0.625000
vt 0.500000 0.250000
vt 0.625000 0.250000
vt 0.250000 0.500000
vt 0.250000 0.375000
vt 0.250000 0.250000
vt 0.375000 0.250000
vt 0.625000 0.250000
vt 0.625000 0.250000
vt 0.750000 0.250000
vt 0.750000 0.250000
vt 0.375000 0.250000
vt 0.375000 0.250000
vt 0.500000 0.250000
vt 0.500000 0.250000
vt 0.250000 0.375000
vt 0.250000 0.500000
vt 0.250000 0.500000
vt 0.250000 0.375000
vt 0.250000 0.250000
vt 0.250000 0.250000
vt 0.250000 0.625000
vt 0.250000 0.625000
vt 0.250000 0.750000
vt 0.250000 0.750000
vt 0.750000 0.375000
vt 0.750000 0.375000
vt 0.750000 0.500000
vt 0.750000 0.623018
vt 0.750000 0.623018
vt 0.750000 0.500000
vt 0.500000 0.750000
vt 0.500000 0.750000
vt 0.625000 0.750000
vt 0.625000 0.750000
vt 0.373767 0.750000
vt 0.373767 0.750000
vt 0.750000 0.750000
vt 0.750000 0.750000
vn -1.0000 -0.0000 -0.0000
vn 1.0000 0.0000 0.0000
vn 0.0000 0.0000 1.0000
vn 0.0000 -0.0000 -1.0000
vn 0.0000 -1.0000 0.0000
vn 0.0000 1.0000 -0.0000
vn 0.0000 -0.7077 0.7065
vn 0.0000 -0.9279 0.3730
vn 0.0000 -0.3729 0.9279
vn 0.0000 -0.7071 0.7071
vn 0.0000 0.3729 -0.9279
vn 0.0000 0.7071 -0.7071
vn 0.0000 0.7077 -0.7065
vn 0.0000 0.9279 -0.3730
vn 0.0000 0.3729 0.9279
vn 0.0000 -0.0008 1.0000
vn 0.0000 -0.7071 -0.7071
vn 0.0000 -0.3729 -0.9279
vn 0.0000 -0.3744 0.9273
vn 0.0000 0.7080 0.7062
vn 0.0000 0.9279 -0.3729
vn 0.0000 1.0000 -0.0014
vn 0.0000 0.9288 0.3705
vn 0.0000 -0.9279 -0.3729
vn 0.0000 0.9279 0.3729
vn 0.0000 -0.9279 0.3729
vn 0.0000 -1.0000 0.0014
vn 0.0000 -0.9288 -0.3705
vn 0.0000 -0.7080 -0.7062
vn 0.0000 0.0008 -1.0000
vn 0.0000 0.3744 -0.9273
vn 0.0000 0.7071 0.7071
usemtl None
s off
f 24/1/1 23/2/1 6/3/1 13/4/1
f 26/5/1 25/6/1 4/7/1 16/8/1
f 31/9/1 32/10/1 14/11/1 2/12/1
f 17/13/1 18/14/1 12/15/1 5/16/1
f 19/17/1 7/18/1 10/19/1 20/20/1
f 21/21/1 3/22/1 11/23/1 22/24/1
f 30/25/1 15/26/1 8/27/1 29/28/1
f 28/29/1 16/8/1 4/30/1 27/31/1
f 1/32/1 9/33/1 18/14/1 17/13/1
f 1/34/1 19/17/1 20/20/1 9/33/1
f 7/18/1 21/21/1 22/24/1 10/19/1
f 11/23/1 3/35/1 23/2/1 24/1/1
f 13/4/1 6/3/1 25/6/1 26/5/1
f 15/26/1 28/29/1 27/31/1 8/27/1
f 14/11/1 30/25/1 29/28/1 2/36/1
f 5/16/1 12/15/1 32/10/1 31/9/1
f 58/37/2 49/38/2 38/39/2 43/40/2
f 59/41/2 55/42/2 36/43/2 44/44/2
f 61/45/2 46/46/2 40/47/2 53/48/2
f 60/49/2 45/50/2 36/51/2 55/42/2
f 54/52/2 58/37/2 43/40/2 35/53/2
f 49/38/2 59/41/2 44/44/2 38/39/2
f 53/48/2 40/47/2 45/50/2 60/49/2
f 52/54/2 34/55/2 46/46/2 61/45/2
f 17/13/3 5/16/3 37/56/3 41/57/3
f 25/6/4 6/3/4 38/39/4 44/44/4
f 31/9/3 2/12/3 34/58/3 47/59/3
f 5/16/3 31/9/3 47/59/3 37/56/3
f 2/36/5 29/28/5 46/46/5 34/55/5
f 27/31/5 4/30/5 36/51/5 45/50/5
f 21/21/6 7/18/6 39/60/6 48/61/6
f 6/3/4 23/2/4 43/40/4 38/39/4
f 19/17/6 1/34/6 33/62/6 42/63/6
f 29/28/5 8/27/5 40/47/5 46/46/5
f 3/22/6 21/21/6 48/61/6 35/64/6
f 1/32/3 17/13/3 41/57/3 33/65/3
f 4/7/4 25/6/4 44/44/4 36/43/4
f 23/2/4 3/35/4 35/53/4 43/40/4
f 8/27/5 27/31/5 45/50/5 40/47/5
f 7/18/6 19/17/6 42/63/6 39/60/6
f 48/61/2 64/66/2 54/52/2 35/64/2
f 37/56/2 47/59/2 62/67/2 50/68/2
f 39/60/2 51/69/2 64/66/2 48/61/2
f 33/62/2 63/70/2 57/71/2 42/63/2
f 33/65/2 41/57/2 56/72/2 63/70/2
f 42/63/2 57/71/2 51/69/2 39/60/2
f 41/57/2 37/56/2 50/68/2 56/72/2
f 47/59/2 34/58/2 52/54/2 62/67/2
f 87/73/2 80/74/2 81/75/2 73/76/2
f 83/77/2 67/78/2 68/79/2 76/80/2
f 93/81/2 65/82/2 66/83/2 90/84/2
f 88/85/2 83/77/2 76/80/2 77/86/2
f 88/85/2 77/86/2 65/82/2 93/81/2
f 90/84/2 66/83/2 84/87/2 94/88/2
f 67/78/2 87/73/2 73/76/2 68/79/2
f 94/88/2 84/87/2 79/89/2 91/90/2
f 81/75/2 80/74/2 86/91/2 69/92/2
f 70/93/2 82/94/2 85/95/2 71/96/2
f 75/97/2 74/98/2 96/99/2 89/100/2
f 79/89/2 78/101/2 95/102/2 91/90/2
f 71/96/2 85/95/2 92/103/2 72/104/2
f 69/92/2 86/91/2 82/94/2 70/93/2
f 74/98/2 72/104/2 92/103/2 96/99/2
f 78/101/2 75/97/2 89/100/2 95/102/2
f 120/105/2 109/106/2 102/107/2 119/108/2
f 122/109/2 112/110/2 100/111/2 121/112/2
f 127/113/2 98/114/2 110/115/2 128/116/2
f 113/117/2 101/118/2 108/119/2 114/120/2
f 115/121/2 116/122/2 106/123/2 103/124/2
f 117/125/2 118/126/2 107/127/2 99/128/2
f 126/129/2 125/130/2 104/131/2 111/132/2
f 124/133/2 123/134/2 100/135/2 112/110/2
f 97/136/2 113/117/2 114/120/2 105/137/2
f 97/138/2 105/137/2 116/122/2 115/121/2
f 103/124/2 106/123/2 118/126/2 117/125/2
f 107/127/2 120/105/2 119/108/2 99/139/2
f 109/106/2 122/109/2 121/112/2 102/107/2
f 111/132/2 104/131/2 123/134/2 124/133/2
f 110/115/2 98/140/2 125/130/2 126/129/2
f 101/118/2 127/113/2 128/116/2 108/119/2
f 154/141/1 139/142/1 134/143/1 145/144/1
f 155/145/1 140/146/1 132/147/1 151/148/1
f 157/149/1 149/150/1 136/151/1 142/152/1
f 156/153/1 151/148/1 132/154/1 141/155/1
f 150/156/1 131/157/1 139/142/1 154/141/1
f 145/144/1 134/143/1 140/146/1 155/145/1
f 149/150/1 156/153/1 141/155/1 136/151/1
f 148/158/1 157/149/1 142/152/1 130/159/1
f 113/117/3 137/160/3 133/161/3 101/118/3
f 121/112/4 140/146/4 134/143/4 102/107/4
f 127/113/3 143/162/3 130/163/3 98/114/3
f 101/118/3 133/161/3 143/162/3 127/113/3
f 98/140/5 130/159/5 142/152/5 125/130/5
f 123/134/5 141/155/5 132/154/5 100/135/5
f 117/125/6 144/164/6 135/165/6 103/124/6
f 102/107/4 134/143/4 139/142/4 119/108/4
f 115/121/6 138/166/6 129/167/6 97/138/6
f 125/130/5 142/152/5 136/151/5 104/131/5
f 99/128/6 131/168/6 144/164/6 117/125/6
f 97/136/3 129/169/3 137/160/3 113/117/3
f 100/111/4 132/147/4 140/146/4 121/112/4
f 119/108/4 139/142/4 131/157/4 99/139/4
f 104/131/5 136/151/5 141/155/5 123/134/5
f 103/124/6 135/165/6 138/166/6 115/121/6
f 144/164/1 131/168/1 150/156/1 160/170/1
f 133/161/1 146/171/1 158/172/1 143/162/1
f 135/165/1 144/164/1 160/170/1 147/173/1
f 129/167/1 138/166/1 153/174/1 159/175/1
f 129/169/1 159/175/1 152/176/1 137/160/1
f 138/166/1 135/165/1 147/173/1 153/174/1
f 137/160/1 152/176/1 146/171/1 133/161/1
f 143/162/1 158/172/1 148/158/1 130/163/1
f 183/177/1 169/178/1 177/179/1 176/180/1
f 179/181/1 172/182/1 164/183/1 163/184/1
f 189/185/1 186/186/1 162/187/1 161/188/1
f 184/189/1 173/190/1 172/182/1 179/181/1
f 184/189/1 189/185/1 161/188/1 173/190/1
f 186/186/1 190/191/1 180/192/1 162/187/1
f 163/184/1 164/183/1 169/178/1 183/177/1
f 190/191/1 187/193/1 175/194/1 180/192/1
f 177/179/1 165/195/1 182/196/1 176/180/1
f 166/197/1 167/198/1 181/199/1 178/200/1
f 171/201/1 185/202/1 192/203/1 170/204/1
f 175/194/1 187/193/1 191/205/1 174/206/1
f 167/198/1 168/207/1 188/208/1 181/199/1
f 165/195/1 166/197/1 178/200/1 182/196/1
f 170/204/1 192/203/1 188/208/1 168/207/1
f 174/206/1 191/205/1 185/202/1 171/201/1
s 1
f 11/23/7 79/89/7 84/87/8 22/24/8
f 62/67/9 52/54/10 80/74/10 87/73/9
f 32/10/11 73/76/11 81/75/12 14/11/12
f 54/52/13 64/66/14 94/88/14 91/90/13
f 26/5/15 74/98/15 75/97/16 13/4/16
f 56/72/15 50/68/3 67/78/3 83/77/15
f 22/24/8 84/87/8 66/83/5 10/19/5
f 32/10/11 12/15/4 68/79/4 73/76/11
f 9/33/17 77/86/17 76/80/18 18/14/18
f 24/1/19 78/101/19 79/89/7 11/23/7
f 13/4/16 75/97/16 78/101/19 24/1/19
f 18/14/18 76/80/18 68/79/4 12/15/4
f 16/8/20 72/104/20 74/98/15 26/5/15
f 69/92/21 70/93/22 15/26/22 30/25/21
f 70/93/22 71/96/23 28/29/23 15/26/22
f 9/33/17 20/20/24 65/82/24 77/86/17
f 71/96/23 72/104/20 16/8/20 28/29/23
f 30/25/21 14/11/12 81/75/12 69/92/21
f 51/69/6 57/71/25 93/81/25 90/84/6
f 61/45/26 53/48/27 82/94/27 86/91/26
f 60/49/28 55/42/29 92/103/29 85/95/28
f 50/68/3 62/67/9 87/73/9 67/78/3
f 55/42/29 59/41/18 96/99/18 92/103/29
f 52/54/10 61/45/26 86/91/26 80/74/10
f 49/38/30 58/37/31 95/102/31 89/100/30
f 53/48/27 60/49/28 85/95/28 82/94/27
f 59/41/18 49/38/30 89/100/30 96/99/18
f 58/37/31 54/52/13 91/90/13 95/102/31
f 64/66/14 51/69/6 90/84/6 94/88/14
f 57/71/25 63/70/32 88/85/32 93/81/25
f 63/70/32 56/72/15 83/77/15 88/85/32
f 10/19/5 66/83/5 65/82/24 20/20/24
f 107/127/7 118/126/8 180/192/8 175/194/7
f 158/172/9 183/177/9 176/180/10 148/158/10
f 128/116/11 110/115/12 177/179/12 169/178/11
f 150/156/13 187/193/13 190/191/14 160/170/14
f 122/109/15 109/106/16 171/201/16 170/204/15
f 152/176/15 179/181/15 163/184/3 146/171/3
f 118/126/8 106/123/5 162/187/5 180/192/8
f 128/116/11 169/178/11 164/183/4 108/119/4
f 105/137/17 114/120/18 172/182/18 173/190/17
f 120/105/19 107/127/7 175/194/7 174/206/19
f 109/106/16 120/105/19 174/206/19 171/201/16
f 114/120/18 108/119/4 164/183/4 172/182/18
f 112/110/20 122/109/15 170/204/15 168/207/20
f 165/195/21 126/129/21 111/132/22 166/197/22
f 166/197/22 111/132/22 124/133/23 167/198/23
f 105/137/17 173/190/17 161/188/24 116/122/24
f 167/198/23 124/133/23 112/110/20 168/207/20
f 126/129/21 165/195/21 177/179/12 110/115/12
f 147/173/6 186/186/6 189/185/25 153/174/25
f 157/149/26 182/196/26 178/200/27 149/150/27
f 156/153/28 181/199/28 188/208/29 151/148/29
f 146/171/3 163/184/3 183/177/9 158/172/9
f 151/148/29 188/208/29 192/203/18 155/145/18
f 148/158/10 176/180/10 182/196/26 157/149/26
f 145/144/30 185/202/30 191/205/31 154/141/31
f 149/150/27 178/200/27 181/199/28 156/153/28
f 155/145/18 192/203/18 185/202/30 145/144/30
f 154/141/31 191/205/31 187/193/13 150/156/13
f 160/170/14 190/191/14 186/186/6 147/173/6
f 153/174/25 189/185/25 184/189/32 159/175/32
f 159/175/32 184/189/32 179/181/15 152/176/15
f 106/123/5 116/122/24 161/188/24 162/187/5
